# MagicaVoxel @ Ephtracy

# group
o 

# material
mtllib 명수당.mtl
usemtl palette

# normals
vn -1 0 0
vn 1 0 0
vn 0 0 1
vn 0 0 -1
vn 0 -1 0
vn 0 1 0

# texcoords
vt 0.0410156 0.5
vt 0.486328 0.5
vt 0.509766 0.5
vt 0.599609 0.5
vt 0.728516 0.5
vt 0.759766 0.5
vt 0.962891 0.5
vt 0.994141 0.5

# verts
v -12 0 12
v -12 0 -12
v -12 1.5 12
v -12 1.5 -12
v 3.5 1 -6
v 3.5 1 -6.9
v 3.5 1.4 -6
v 3.5 1.4 -6.9
v 3.7 1.4 -6
v 3.7 1.4 -6.1
v 3.7 1.4 -6.9
v 3.7 1.6 -6
v 3.7 1.6 -6.1
v 3.7 1.6 -6.9
v 4.7 1.6 -6.2
v 4.7 1.6 -6.7
v 4.7 2.1 -6.2
v 4.7 2.1 -6.7
v 8.6 1 -10.4
v 8.6 1 -12
v 8.6 1.5 -10.4
v 8.6 1.5 -12
v 9.9 1.4 10.7
v 9.9 1.4 -10.4
v 9.9 1.5 10.7
v 9.9 1.5 -10.4
v 10 1 10.7
v 10 1 -10.4
v 10 1.4 10.7
v 10 1.4 -10.4
v -9.7 1 10.7
v -9.7 1 -10.4
v -9.7 1.5 10.7
v -9.7 1.5 -10.4
v 5 1 -6
v 5 1 -6.9
v 5 1.4 -6.3
v 5 1.4 -6.7
v 5 1.6 -6
v 5 1.6 -6.2
v 5 1.6 -6.3
v 5 1.6 -6.7
v 5 1.6 -6.9
v 5.1 1.4 -6.3
v 5.1 1.4 -6.7
v 5.1 1.6 -6.3
v 5.1 1.6 -6.7
v 5.3 1.6 -6.2
v 5.3 1.6 -6.7
v 5.3 1.7 -6.3
v 5.3 1.7 -6.6
v 5.3 1.9 -6.3
v 5.3 1.9 -6.6
v 5.3 2.1 -6.2
v 5.3 2.1 -6.7
v 5.5 1.7 -6.3
v 5.5 1.7 -6.6
v 5.5 1.9 -6.3
v 5.5 1.9 -6.6
v 5.9 1 -10.4
v 5.9 1 -12
v 5.9 1.5 -10.4
v 5.9 1.5 -12
v 12 0 12
v 12 0 -12
v 12 1.5 12
v 12 1.5 -12
v -12 0 12
v -12 1.5 12
v 12 0 12
v 12 1.5 12
v 3.5 1 -6
v 3.5 1.4 -6
v 3.7 1.2 -6
v 3.7 1.4 -6
v 3.7 1.6 -6
v 4.8 1.2 -6
v 4.8 1.6 -6
v 5 1 -6
v 5 1.6 -6
v 4.7 1.6 -6.2
v 4.7 2.1 -6.2
v 5 1.6 -6.2
v 5 1.9 -6.2
v 5 2 -6.2
v 5.1 1.9 -6.2
v 5.1 2 -6.2
v 5.2 1.9 -6.2
v 5.2 2 -6.2
v 5.3 1.6 -6.2
v 5.3 2.1 -6.2
v 5 1.4 -6.3
v 5 1.6 -6.3
v 5.1 1.4 -6.3
v 5.1 1.6 -6.3
v 5.3 1.7 -6.3
v 5.3 1.9 -6.3
v 5.5 1.7 -6.3
v 5.5 1.9 -6.3
v -9.7 1 -10.4
v -9.7 1.5 -10.4
v 5.9 1 -10.4
v 5.9 1.5 -10.4
v 8.6 1 -10.4
v 8.6 1.5 -10.4
v 9.9 1.4 -10.4
v 9.9 1.5 -10.4
v 10 1 -10.4
v 10 1.4 -10.4
v -9.7 1 10.7
v -9.7 1.5 10.7
v 9.9 1.4 10.7
v 9.9 1.5 10.7
v 10 1 10.7
v 10 1.4 10.7
v 5.3 1.7 -6.6
v 5.3 1.9 -6.6
v 5.5 1.7 -6.6
v 5.5 1.9 -6.6
v 4.7 1.6 -6.7
v 4.7 2.1 -6.7
v 5 1.4 -6.7
v 5 1.6 -6.7
v 5 1.9 -6.7
v 5 2 -6.7
v 5.1 1.4 -6.7
v 5.1 1.6 -6.7
v 5.1 1.9 -6.7
v 5.1 2 -6.7
v 5.2 1.9 -6.7
v 5.2 2 -6.7
v 5.3 1.6 -6.7
v 5.3 2.1 -6.7
v 3.5 1 -6.9
v 3.5 1.4 -6.9
v 3.7 1.4 -6.9
v 3.7 1.6 -6.9
v 3.9 1.2 -6.9
v 3.9 1.6 -6.9
v 4.9 1.2 -6.9
v 4.9 1.6 -6.9
v 5 1 -6.9
v 5 1.6 -6.9
v -12 0 -12
v -12 1.5 -12
v 5.9 0 -12
v 5.9 1 -12
v 5.9 1.5 -12
v 8.6 0 -12
v 8.6 1 -12
v 8.6 1.5 -12
v 12 0 -12
v 12 1.5 -12
v -12 0 12
v 12 0 12
v 5.9 0 -11.9
v 8.6 0 -11.9
v -12 0 -12
v 5.9 0 -12
v 8.6 0 -12
v 12 0 -12
v 9.9 1.4 10.7
v 10 1.4 10.7
v 5 1.4 -6.3
v 5.1 1.4 -6.3
v 5 1.4 -6.7
v 5.1 1.4 -6.7
v 9.9 1.4 -10.4
v 10 1.4 -10.4
v 5 1.6 -6.2
v 5.3 1.6 -6.2
v 5 1.6 -6.3
v 5.1 1.6 -6.3
v 5.1 1.6 -6.7
v 5.3 1.6 -6.7
v 5.3 1.7 -6.3
v 5.5 1.7 -6.3
v 5.3 1.7 -6.6
v 5.5 1.7 -6.6
v -9.7 1 10.7
v 10 1 10.7
v -8.2 1 8.9
v -4.5 1 8.9
v -8.2 1 8.6
v -4.5 1 8.6
v 1.4 1 7.2
v 5.3 1 7.2
v 1.4 1 6.9
v 5.3 1 6.9
v -6 1 4.5
v -2.3 1 4.5
v -6 1 4.2
v -2.3 1 4.2
v 4.1 1 3.3
v 7.7 1 3.3
v 4.1 1 3
v 7.7 1 3
v -1.8 1 0
v 1.7 1 0
v -1.8 1 -0.3
v 1.7 1 -0.3
v -8.2 1 -3.1
v -4.9 1 -3.1
v -8.2 1 -3.4
v -4.9 1 -3.4
v 2.1 1 -4.1
v 5.8 1 -4.1
v 2.1 1 -4.4
v 5.8 1 -4.4
v 3.5 1 -6
v 5 1 -6
v 3.5 1 -6.9
v 5 1 -6.9
v -5.8 1 -7.2
v -2.1 1 -7.2
v -5.8 1 -7.5
v -2.1 1 -7.5
v 5.7 1 -8.4
v 8.6 1 -8.4
v 5.7 1 -8.7
v 8.6 1 -8.7
v -9.7 1 -10.4
v 5.9 1 -10.4
v 8.6 1 -10.4
v 10 1 -10.4
v 5.9 1 -12
v 8.6 1 -12
v 3.5 1.4 -6
v 3.7 1.4 -6
v 3.7 1.4 -6.1
v 3.5 1.4 -6.9
v 3.7 1.4 -6.9
v -12 1.5 12
v 12 1.5 12
v -9.7 1.5 10.7
v 9.9 1.5 10.7
v -9.7 1.5 -10.4
v 5.9 1.5 -10.4
v 8.6 1.5 -10.4
v 9.9 1.5 -10.4
v -12 1.5 -12
v 5.9 1.5 -12
v 8.6 1.5 -12
v 12 1.5 -12
v 3.7 1.6 -6
v 4.8 1.6 -6
v 5 1.6 -6
v 3.7 1.6 -6.1
v 4.8 1.6 -6.1
v 4.7 1.6 -6.2
v 5 1.6 -6.2
v 4.7 1.6 -6.7
v 5 1.6 -6.7
v 3.9 1.6 -6.8
v 4.9 1.6 -6.8
v 3.7 1.6 -6.9
v 3.9 1.6 -6.9
v 4.9 1.6 -6.9
v 5 1.6 -6.9
v 5.3 1.9 -6.3
v 5.5 1.9 -6.3
v 5.3 1.9 -6.6
v 5.5 1.9 -6.6
v 4.7 2.1 -6.2
v 5.3 2.1 -6.2
v 4.7 2.1 -6.7
v 5.3 2.1 -6.7

# faces
f 3/4/1 2/4/1 1/4/1
f 4/4/1 2/4/1 3/4/1
f 7/3/1 6/3/1 5/3/1
f 8/3/1 6/3/1 7/3/1
f 12/2/1 10/2/1 9/2/1
f 13/3/1 11/3/1 10/3/1
f 13/2/1 10/2/1 12/2/1
f 14/3/1 11/3/1 13/3/1
f 17/3/1 16/3/1 15/3/1
f 18/3/1 16/3/1 17/3/1
f 21/4/1 20/4/1 19/4/1
f 22/4/1 20/4/1 21/4/1
f 25/4/1 24/4/1 23/4/1
f 26/4/1 24/4/1 25/4/1
f 29/4/1 28/4/1 27/4/1
f 30/4/1 28/4/1 29/4/1
f 31/4/2 32/4/2 33/4/2
f 33/4/2 32/4/2 34/4/2
f 35/3/2 36/3/2 37/3/2
f 37/3/2 36/3/2 38/3/2
f 35/3/2 37/3/2 39/3/2
f 39/3/2 37/3/2 40/3/2
f 40/3/2 37/3/2 41/3/2
f 38/3/2 36/3/2 42/3/2
f 42/3/2 36/3/2 43/3/2
f 44/3/2 45/3/2 46/3/2
f 46/3/2 45/3/2 47/3/2
f 48/3/2 49/3/2 50/3/2
f 50/3/2 49/3/2 51/3/2
f 48/3/2 50/3/2 52/3/2
f 51/3/2 49/3/2 53/3/2
f 48/3/2 52/3/2 54/3/2
f 52/3/2 53/3/2 54/3/2
f 53/3/2 49/3/2 55/3/2
f 54/3/2 53/3/2 55/3/2
f 56/1/2 57/1/2 58/1/2
f 58/1/2 57/1/2 59/1/2
f 60/4/2 61/4/2 62/4/2
f 62/4/2 61/4/2 63/4/2
f 64/4/2 65/4/2 66/4/2
f 66/4/2 65/4/2 67/4/2
f 70/4/3 69/4/3 68/4/3
f 71/4/3 69/4/3 70/4/3
f 74/3/3 73/3/3 72/3/3
f 75/3/3 73/3/3 74/3/3
f 77/3/3 74/3/3 72/3/3
f 77/2/3 76/2/3 75/2/3
f 77/2/3 75/2/3 74/2/3
f 78/2/3 76/2/3 77/2/3
f 79/3/3 77/3/3 72/3/3
f 79/3/3 78/3/3 77/3/3
f 80/3/3 78/3/3 79/3/3
f 83/3/3 82/3/3 81/3/3
f 84/3/3 82/3/3 83/3/3
f 85/3/3 82/3/3 84/3/3
f 86/3/3 84/3/3 83/3/3
f 86/7/3 85/7/3 84/7/3
f 87/3/3 82/3/3 85/3/3
f 87/7/3 85/7/3 86/7/3
f 88/3/3 86/3/3 83/3/3
f 88/8/3 87/8/3 86/8/3
f 89/3/3 82/3/3 87/3/3
f 89/8/3 87/8/3 88/8/3
f 90/3/3 88/3/3 83/3/3
f 90/3/3 89/3/3 88/3/3
f 91/3/3 82/3/3 89/3/3
f 91/3/3 89/3/3 90/3/3
f 94/3/3 93/3/3 92/3/3
f 95/3/3 93/3/3 94/3/3
f 98/1/3 97/1/3 96/1/3
f 99/1/3 97/1/3 98/1/3
f 102/4/3 101/4/3 100/4/3
f 103/4/3 101/4/3 102/4/3
f 106/4/3 105/4/3 104/4/3
f 107/4/3 105/4/3 106/4/3
f 108/4/3 106/4/3 104/4/3
f 109/4/3 106/4/3 108/4/3
f 110/4/4 111/4/4 112/4/4
f 112/4/4 111/4/4 113/4/4
f 110/4/4 112/4/4 114/4/4
f 114/4/4 112/4/4 115/4/4
f 116/1/4 117/1/4 118/1/4
f 118/1/4 117/1/4 119/1/4
f 120/3/4 121/3/4 123/3/4
f 123/3/4 121/3/4 124/3/4
f 124/3/4 121/3/4 125/3/4
f 122/3/4 123/3/4 126/3/4
f 123/3/4 124/3/4 126/3/4
f 126/3/4 124/3/4 127/3/4
f 124/7/4 125/7/4 128/7/4
f 127/3/4 124/3/4 128/3/4
f 125/3/4 121/3/4 129/3/4
f 128/7/4 125/7/4 129/7/4
f 127/3/4 128/3/4 130/3/4
f 128/8/4 129/8/4 130/8/4
f 129/3/4 121/3/4 131/3/4
f 130/8/4 129/8/4 131/8/4
f 127/3/4 130/3/4 132/3/4
f 130/3/4 131/3/4 132/3/4
f 131/3/4 121/3/4 133/3/4
f 132/3/4 131/3/4 133/3/4
f 134/3/4 135/3/4 136/3/4
f 134/3/4 136/3/4 138/3/4
f 136/3/4 137/3/4 138/3/4
f 138/3/4 137/3/4 139/3/4
f 134/3/4 138/3/4 140/3/4
f 138/2/4 139/2/4 140/2/4
f 140/2/4 139/2/4 141/2/4
f 134/3/4 140/3/4 142/3/4
f 140/3/4 141/3/4 142/3/4
f 142/3/4 141/3/4 143/3/4
f 144/4/4 145/4/4 146/4/4
f 146/4/4 145/4/4 147/4/4
f 147/4/4 145/4/4 148/4/4
f 146/5/4 147/5/4 149/5/4
f 149/5/4 147/5/4 150/5/4
f 149/4/4 150/4/4 152/4/4
f 150/4/4 151/4/4 152/4/4
f 152/4/4 151/4/4 153/4/4
f 156/4/5 155/4/5 154/4/5
f 157/4/5 155/4/5 156/4/5
f 158/4/5 156/4/5 154/4/5
f 159/5/5 157/5/5 156/5/5
f 159/4/5 156/4/5 158/4/5
f 160/4/5 155/4/5 157/4/5
f 160/5/5 157/5/5 159/5/5
f 161/4/5 155/4/5 160/4/5
f 166/3/5 165/3/5 164/3/5
f 167/3/5 165/3/5 166/3/5
f 168/4/5 163/4/5 162/4/5
f 169/4/5 163/4/5 168/4/5
f 172/3/5 171/3/5 170/3/5
f 173/3/5 171/3/5 172/3/5
f 174/3/5 171/3/5 173/3/5
f 175/3/5 171/3/5 174/3/5
f 178/1/5 177/1/5 176/1/5
f 179/1/5 177/1/5 178/1/5
f 180/5/6 181/5/6 182/5/6
f 182/5/6 181/5/6 183/5/6
f 180/5/6 182/5/6 184/5/6
f 182/6/6 183/6/6 184/6/6
f 183/5/6 181/5/6 185/5/6
f 184/6/6 183/6/6 185/6/6
f 184/5/6 185/5/6 186/5/6
f 185/5/6 181/5/6 186/5/6
f 186/5/6 181/5/6 187/5/6
f 184/5/6 186/5/6 188/5/6
f 186/6/6 187/6/6 188/6/6
f 187/5/6 181/5/6 189/5/6
f 188/6/6 187/6/6 189/6/6
f 184/5/6 188/5/6 190/5/6
f 188/5/6 189/5/6 190/5/6
f 190/5/6 189/5/6 191/5/6
f 184/5/6 190/5/6 192/5/6
f 190/6/6 191/6/6 192/6/6
f 191/5/6 189/5/6 193/5/6
f 192/6/6 191/6/6 193/6/6
f 192/5/6 193/5/6 194/5/6
f 193/5/6 189/5/6 194/5/6
f 189/5/6 181/5/6 195/5/6
f 194/5/6 189/5/6 195/5/6
f 192/5/6 194/5/6 196/5/6
f 194/6/6 195/6/6 196/6/6
f 195/5/6 181/5/6 197/5/6
f 196/6/6 195/6/6 197/6/6
f 192/5/6 196/5/6 198/5/6
f 196/5/6 197/5/6 198/5/6
f 198/5/6 197/5/6 199/5/6
f 192/5/6 198/5/6 200/5/6
f 198/6/6 199/6/6 200/6/6
f 199/5/6 197/5/6 201/5/6
f 200/6/6 199/6/6 201/6/6
f 180/5/6 184/5/6 202/5/6
f 184/5/6 192/5/6 202/5/6
f 200/5/6 201/5/6 202/5/6
f 192/5/6 200/5/6 202/5/6
f 202/5/6 201/5/6 203/5/6
f 180/5/6 202/5/6 204/5/6
f 202/6/6 203/6/6 204/6/6
f 203/5/6 201/5/6 205/5/6
f 204/6/6 203/6/6 205/6/6
f 201/5/6 197/5/6 206/5/6
f 205/5/6 201/5/6 206/5/6
f 204/5/6 205/5/6 206/5/6
f 206/5/6 197/5/6 207/5/6
f 204/5/6 206/5/6 208/5/6
f 206/6/6 207/6/6 208/6/6
f 207/5/6 197/5/6 209/5/6
f 208/6/6 207/6/6 209/6/6
f 208/5/6 209/5/6 210/5/6
f 210/5/6 209/5/6 211/5/6
f 208/5/6 210/5/6 212/5/6
f 211/5/6 209/5/6 213/5/6
f 204/5/6 208/5/6 214/5/6
f 212/5/6 213/5/6 214/5/6
f 208/5/6 212/5/6 214/5/6
f 214/5/6 213/5/6 215/5/6
f 204/5/6 214/5/6 216/5/6
f 214/6/6 215/6/6 216/6/6
f 215/5/6 213/5/6 217/5/6
f 216/6/6 215/6/6 217/6/6
f 213/5/6 209/5/6 218/5/6
f 217/5/6 213/5/6 218/5/6
f 216/5/6 217/5/6 218/5/6
f 197/5/6 181/5/6 219/5/6
f 218/5/6 209/5/6 219/5/6
f 209/5/6 197/5/6 219/5/6
f 216/5/6 218/5/6 220/5/6
f 218/6/6 219/6/6 220/6/6
f 219/5/6 181/5/6 221/5/6
f 220/6/6 219/6/6 221/6/6
f 180/5/6 204/5/6 222/5/6
f 216/5/6 220/5/6 222/5/6
f 220/5/6 221/5/6 222/5/6
f 204/5/6 216/5/6 222/5/6
f 222/5/6 221/5/6 223/5/6
f 221/5/6 181/5/6 224/5/6
f 223/5/6 221/5/6 224/5/6
f 224/5/6 181/5/6 225/5/6
f 223/5/6 224/5/6 226/5/6
f 226/5/6 224/5/6 227/5/6
f 228/3/6 229/3/6 230/3/6
f 228/3/6 230/3/6 231/3/6
f 231/3/6 230/3/6 232/3/6
f 233/4/6 234/4/6 235/4/6
f 235/4/6 234/4/6 236/4/6
f 233/4/6 235/4/6 237/4/6
f 236/4/6 234/4/6 240/4/6
f 237/4/6 238/4/6 241/4/6
f 233/4/6 237/4/6 241/4/6
f 241/4/6 238/4/6 242/4/6
f 239/4/6 240/4/6 243/4/6
f 240/4/6 234/4/6 244/4/6
f 243/4/6 240/4/6 244/4/6
f 245/2/6 246/2/6 248/2/6
f 246/3/6 247/3/6 249/3/6
f 248/2/6 246/2/6 249/2/6
f 248/3/6 249/3/6 250/3/6
f 249/3/6 247/3/6 251/3/6
f 250/3/6 249/3/6 251/3/6
f 248/3/6 250/3/6 252/3/6
f 248/3/6 252/3/6 254/3/6
f 252/3/6 253/3/6 254/3/6
f 254/3/6 253/3/6 255/3/6
f 248/3/6 254/3/6 256/3/6
f 254/2/6 255/2/6 257/2/6
f 256/3/6 254/3/6 257/3/6
f 255/3/6 253/3/6 258/3/6
f 257/2/6 255/2/6 258/2/6
f 258/3/6 253/3/6 259/3/6
f 260/1/6 261/1/6 262/1/6
f 262/1/6 261/1/6 263/1/6
f 264/3/6 265/3/6 266/3/6
f 266/3/6 265/3/6 267/3/6
